<?xml version="1.0" encoding="UTF-8"?>
<svg id="SVGDoc" width="200" height="100" xmlns="http://www.w3.org/2000/svg" version="1.1" xmlns:xlink="http://www.w3.org/1999/xlink" xmlns:avocode="https://avocode.com/" viewBox="0 0 100 94"><defs><linearGradient id="LinearGradient1016" gradientUnits="userSpaceOnUse" x1="77.38999999999999" y1="5.939999999999998" x2="30.49000000000001" y2="39.39"><stop stop-opacity="1" stop-color="#007bac" offset="0"></stop><stop stop-opacity="1" stop-color="#007bac" offset="0.3"></stop><stop stop-opacity="1" stop-color="#003c7b" offset="0.67"></stop><stop stop-opacity="1" stop-color="#003c7b" offset="1"></stop></linearGradient><linearGradient id="LinearGradient1071" gradientUnits="userSpaceOnUse" x1="53.93000000000001" y1="16.759999999999998" x2="53.93000000000001" y2="72.16"><stop stop-opacity="1" stop-color="#91bb30" offset="0"></stop><stop stop-opacity="1" stop-color="#91bb30" offset="0.22"></stop><stop stop-opacity="1" stop-color="#248332" offset="0.58"></stop><stop stop-opacity="1" stop-color="#1b6a2f" offset="0.74"></stop><stop stop-opacity="1" stop-color="#14522a" offset="0.92"></stop><stop stop-opacity="1" stop-color="#14522a" offset="1"></stop></linearGradient></defs><desc>Generated with Avocode.</desc><g><g><title>Group 1</title><g><title>Path 1</title><path d="M85.49908,17.6301c0,-0.00336 0.01752,-0.00845 0.01947,-0.01056c0,0.01251 -0.00195,0.0195 -0.00195,0.03006c-0.005,-0.00333 -0.01752,-0.01056 -0.01752,-0.0195zM84.05182,17.10159c0.01184,0.00897 0.0155,0.02148 0.03003,0.03015c-0.01453,0 -0.01819,0.00397 -0.03003,0.00531zM86.60004,13.91351c0.01758,0.01251 0.04413,0.01816 0.05249,0.03018c-0.02448,0.01947 -0.05249,0.03546 -0.09155,0.05298c0.00708,-0.02652 0.02655,-0.05298 0.03906,-0.08316zM85.51855,12.43976c0.01404,-0.0051 0.02655,-0.00696 0.02997,-0.00845v0.01901c-0.00342,-0.00146 -0.01593,-0.00357 -0.02997,-0.01056zM85.68988,9.40756c0.00342,0.00351 0.00342,0.00351 0.01038,0.00351c0,0.0015 -0.00696,0.00711 -0.00696,0.00711c0,0 -0.00342,-0.00711 -0.00342,-0.01062zM51.58917,0.4386c-0.92627,0.04401 -1.59058,1.51987 -2.07629,2.59082c-0.54968,1.24237 -0.99353,2.41568 -1.38226,3.36835c-6.35144,15.89478 -12.6004,31.75168 -18.91129,47.40234c2.69168,-0.33194 5.1127,-0.9346 7.51761,-1.55322c3.84741,-10.3136 7.80627,-20.87628 11.65509,-31.08551c0.23499,-0.62573 0.37146,-1.50745 1.03552,-1.89676c0.50897,0.88922 0.77454,1.89676 1.12073,2.84546c2.55176,6.93677 5.21484,13.8197 7.68744,20.72433c3.28522,-1.81851 6.802,-4.02563 10.12262,-6.36362c6.48395,-4.5896 12.06708,-9.78494 17.08215,-16.08694c1.1239,-1.42816 2.35242,-3.06982 3.36133,-4.91833c1.00928,-1.84357 1.93164,-4.16193 1.89783,-6.39221c-0.11798,-7.66452 -11.02216,-5.88156 -16.65778,-4.40582c-4.58429,1.20343 -8.55328,2.8204 -12.4411,4.49063c-0.04071,0 -0.10083,0.06915 0,0.08865c4.96576,-0.85208 11.18811,-2.82785 17.18616,-2.41962c2.54462,0.17685 4.66565,1.13617 5.52435,2.93561c0.56744,1.17862 0.54602,3.27124 0.17322,4.57867c-0.58313,2.09952 -1.90857,4.32468 -3.36841,5.96088c-4.44281,4.98383 -10.30988,8.80463 -15.63666,11.64804c-3.97443,-9.69684 -7.21912,-18.40048 -11.30682,-28.14529c-0.48053,-1.15234 -1.25977,-3.36804 -2.53241,-3.36804c-0.01733,0 -0.03351,0 -0.05103,0.00159z" fill="url(#LinearGradient1016)"></path></g><g><title>Path 2</title><path d="M84.05194,18.88707v0l-0.7356,-0.14331v0l0.59717,-0.48785v0l-0.42029,-0.65729v0l0.74243,0.10071v0l0.1449,-0.78302v0l0.44861,0.63464v0l0.6167,-0.45233v0l-0.09509,0.79156v0l0.73853,0.14526v0l-0.59924,0.48389v0l0.43335,0.65576v0l-0.7478,-0.10266v0l-0.14685,0.7829v0l-0.45593,-0.63062v0l-0.61462,0.45038v0z" fill="#ffffff" fill-opacity="1"></path></g><g><title>Path 3</title><path d="M75.96094,5.8222v0l-0.50891,-0.09857v0l0.41187,-0.33926v0l-0.29712,-0.45285v0l0.52344,0.07269v0l0.09167,-0.54407v0l0.31464,0.43985v0l0.43127,-0.31647v0l-0.07257,0.54633v0l0.51593,0.10431v0l-0.41541,0.33212v0l0.2937,0.45584v0l-0.51111,-0.07416v0l-0.09711,0.5441v0l-0.3161,-0.43781v0l-0.42944,0.3161v0z" fill="#ffffff" fill-opacity="1"></path></g><g><title>Path 4</title><path d="M71.20392,6.55262v0l-0.31812,-0.06006v0l0.2525,-0.21948v0l-0.18744,-0.28943v0l0.33563,0.04602v0l0.05859,-0.34818v0l0.20142,0.27902v0l0.28265,-0.19647v0l-0.04211,0.3468v0l0.31451,0.06369v0l-0.26147,0.21732v0l0.19244,0.28961v0l-0.32666,-0.04568v0l-0.06763,0.35321v0l-0.19794,-0.28604v0l-0.28101,0.20483v0z" fill="#ffffff" fill-opacity="1"></path></g><g><title>Path 5</title><path d="M86.52661,13.80527v0l-0.76709,-0.14877v0l0.62024,-0.5123v0l-0.43835,-0.6853v0l0.77417,0.10907v0l0.14661,-0.82144v0l0.48254,0.66614v0l0.65564,-0.47745v0l-0.10962,0.83066v0l0.76196,0.14673v0l-0.61682,0.51096v0l0.43835,0.68045v0l-0.776,-0.10431v0l-0.14868,0.82007v0l-0.47131,-0.66129v0l-0.65796,0.47183v0z" fill="#ffffff" fill-opacity="1"></path></g><g><title>Path 6</title><path d="M81.00043,5.94241v0l-0.7774,-0.14682v0l0.62024,-0.5123v0l-0.44,-0.68747v0l0.78259,0.10773v0l0.14679,-0.8165v0l0.47186,0.66129v0l0.65375,-0.47403v0l-0.10431,0.82724v0l0.77258,0.15219v0l-0.63477,0.50354v0l0.44733,0.68726v0l-0.78101,-0.1091v0l-0.13611,0.82501v0l-0.48248,-0.66431v0l-0.65015,0.47345v0z" fill="#ffffff" fill-opacity="1"></path></g><g><title>Path 7</title><path d="M85.7536,8.48784v0l-1.04663,-0.20502v0l0.84131,-0.68579v0l-0.59717,-0.9292v0l1.04956,0.14679v0l0.20532,-1.11163v0l0.64673,0.90118v0l0.87671,-0.64868v0l-0.14539,1.12408v0l1.04443,0.20154v0l-0.84802,0.68719v0l0.61108,0.92975v0l-1.06201,-0.14825v0l-0.19775,1.11304v0l-0.64868,-0.89618v0l-0.87488,0.63977v0z" fill="#ffffff" fill-opacity="1"></path></g><g><title>Path 8</title><path d="M80.22894,23.65198v0l-0.54944,-0.10608v0l0.44897,-0.36218v0l-0.32019,-0.48801v0l0.55518,0.07617v0l0.10413,-0.57953v0l0.33411,0.46826v0l0.46497,-0.33408v0l-0.0708,0.58658v0l0.54248,0.10431v0l-0.44519,0.36414v0l0.31812,0.48441v0l-0.55859,-0.07422v0l-0.10071,0.58316v0l-0.33069,-0.47189v0l-0.46985,0.33569v0z" fill="#ffffff" fill-opacity="1"></path></g><g><title>Path 9</title><path d="M70.03168,31.91272v0l-0.59705,-0.11328v0l0.48438,-0.38867v0l-0.33765,-0.52509v0l0.60052,0.08313v0l0.10773,-0.62561v0l0.36627,0.50555v0l0.48938,-0.36237v0l-0.07751,0.63281v0l0.58649,0.11462v0l-0.46985,0.38873v0l0.33203,0.52155v0l-0.5885,-0.07965v0l-0.11328,0.62225v0l-0.37103,-0.5v0l-0.49103,0.35858v0z" fill="#ffffff" fill-opacity="1"></path></g><g><title>Path 10</title><path d="M75.52368,28.00972v0l-0.59009,-0.11517v0l0.48584,-0.38867v0l-0.34119,-0.52496v0l0.59723,0.08325v0l0.11169,-0.62726v0l0.35864,0.50531v0l0.50189,-0.36218v0l-0.08148,0.63422v0l0.5835,0.11328v0l-0.47186,0.38867v0l0.3371,0.52295v0l-0.59711,-0.08319v0l-0.11328,0.62585v0l-0.36005,-0.50342v0l-0.49353,0.36212v0z" fill="#ffffff" fill-opacity="1"></path></g><g><title>Path 11</title><path d="M35.18205,58.5508c0.02673,0.02295 0.0477,0.05103 0.07083,0.07751c-0.02313,0.00696 -0.05121,0.01062 -0.07083,0.01764zM14.13084,72.1584h24.14914v-1.94214h-4.60861c-0.28116,-0.06366 -0.50919,-0.15027 -0.73346,-0.27039c-1.81146,-0.95593 -1.26544,-3.58246 -0.68781,-5.52606c11.62854,-2.49725 20.56537,-7.69464 29.18445,-13.21008c2.01819,5.41467 3.65622,10.2655 5.69928,15.63275c0.50388,1.3324 1.14157,2.73755 -0.1058,3.37378h-1.65622v1.94214h24.91489v-1.94214h-4.13544c-0.03912,0 -0.08157,-0.00543 -0.11172,-0.00897c-4.09628,-0.54944 -5.81757,-3.3313 -7.42551,-6.30341c-1.06055,-1.95679 -1.93729,-4.16895 -2.84048,-6.38715c-1.86591,-4.52557 -3.5802,-8.72308 -5.35953,-13.12885c9.14328,-7.78088 17.54871,-16.76239 23.30957,-27.63245c-8.44183,10.83496 -18.32062,20.87311 -30.56442,28.66833c-5.84607,3.72504 -12.37048,7.31085 -19.85672,9.76202c-3.57874,1.16632 -7.61682,2.31329 -11.91656,2.8468c-6.64798,0.82208 -12.09274,-0.6886 -12.52621,-6.73474c-0.22595,-3.12085 0.79703,-6.37598 1.38205,-8.72144c-1.05832,1.93872 -2.40146,4.00659 -3.45648,6.30396c-1.01654,2.23364 -2.04837,4.78418 -2.23917,7.5127c-0.45233,6.34052 3.59973,8.80969 9.84006,8.89081c-1.40512,2.77789 -2.97809,4.45709 -6.34808,4.93237h-3.9072v1.94214z" fill="url(#LinearGradient1071)"></path></g><g><title>Path 12</title><path d="M16.78514,56.85254v0l-0.8465,-0.16418v0l0.68439,-0.55518v0l-0.48102,-0.75293v0l0.85352,0.12036v0l0.16095,-0.89795v0l0.51599,0.72107v0l0.71234,-0.51758v0l-0.1153,0.90466v0l0.85553,0.16589v0l-0.69275,0.55701v0l0.48242,0.74902v0l-0.84802,-0.11487v0l-0.15735,0.89624v0l-0.5285,-0.72498v0l-0.71039,0.52161v0z" fill="#ffffff" fill-opacity="1"></path></g><g><title>Path 13</title><path d="M35.00739,61.29388v0l-1.08154,-0.20679v0l0.87811,-0.71741v0l-0.62018,-0.96851v0l1.09399,0.15735v0l0.20697,-1.15759v0l0.67133,0.93115v0l0.91168,-0.66614v0l-0.15186,1.16272v0l1.09406,0.21033v0l-0.88361,0.71387v0l0.62915,0.96484v0l-1.09961,-0.14832v0l-0.20624,1.14868v0l-0.67187,-0.92566v0l-0.91376,0.66614v0z" fill="#ffffff" fill-opacity="1"></path></g><g><title>Path 14</title><path d="M20.2534,61.80453v0l-1.30249,-0.25452v0l1.04645,-0.84827v0l-0.74445,-1.15759v0l1.31699,0.18579v0l0.23853,-1.37671v0l0.80389,1.11169v0l1.08707,-0.79895v0l-0.1767,1.38904v0l1.30252,0.25256v0l-1.05356,0.85022v0l0.74942,1.15552v0l-1.30942,-0.18372v0l-0.24194,1.375v0l-0.81522,-1.10803v0l-1.0849,0.79553v0z" fill="#ffffff" fill-opacity="1"></path></g><g><title>Path 15</title><path d="M41.7681,59.15793v0l-0.91522,-0.17493v0l0.73334,-0.60406v0l-0.51794,-0.80957v0l0.91937,0.12726v0l0.17279,-0.9754v0l0.56549,0.78241v0l0.77045,-0.56v0l-0.13062,0.98077v0l0.92053,0.17853v0l-0.73828,0.60248v0l0.52844,0.81158v0l-0.92969,-0.12573v0l-0.16992,0.97034v0l-0.56195,-0.78448v0l-0.77405,0.56354v0z" fill="#ffffff" fill-opacity="1"></path></g><g><title>Path 16</title><path d="M47.43979,56.68765v0l-0.91858,-0.17688v0l0.73883,-0.60266v0l-0.5235,-0.81433v0l0.92432,0.13049v0l0.17181,-0.97375v0l0.56702,0.7865v0l0.77057,-0.56409v0l-0.12537,0.98096v0l0.91333,0.17676v0l-0.73853,0.60071v0l0.52515,0.81665v0l-0.9353,-0.12891v0l-0.16791,0.96838v0l-0.55847,-0.78442v0l-0.77203,0.56689v0z" fill="#ffffff" fill-opacity="1"></path></g><g><title>Path 17</title><path d="M52.57968,54.4017v0l-0.76562,-0.15009v0l0.62439,-0.51099v0l-0.43701,-0.68542v0l0.77405,0.11127v0l0.13977,-0.82147v0l0.48242,0.66064v0l0.6521,-0.47394v0l-0.10754,0.82922v0l0.77539,0.15179v0l-0.63269,0.50739v0l0.45093,0.68579v0l-0.77954,-0.11169v0l-0.15186,0.82202v0l-0.47534,-0.66266v0l-0.64514,0.47882v0z" fill="#ffffff" fill-opacity="1"></path></g><g><title>Path 18</title><path d="M57.29102,51.47031v0l-0.69086,-0.13086v0l0.55322,-0.45227v0l-0.38733,-0.61115v0l0.69482,0.09375v0l0.12531,-0.72491v0l0.41876,0.5885v0l0.58154,-0.42212v0l-0.09375,0.73322v0l0.6908,0.13428v0l-0.56494,0.45038v0l0.38867,0.61017v0l-0.68585,-0.0957v0l-0.12921,0.7243v0l-0.42212,-0.58307v0l-0.57758,0.41882v0z" fill="#ffffff" fill-opacity="1"></path></g><g><title>Path 19</title><path d="M62.3988,48.2908v0l-0.61169,-0.11884v0l0.49689,-0.40765v0l-0.35571,-0.54663v0l0.62781,0.08667v0l0.11462,-0.65564v0l0.37817,0.53052v0l0.52148,-0.38177v0l-0.08325,0.66266v0l0.62225,0.1203v0l-0.50891,0.40625v0l0.35321,0.5495v0l-0.62164,-0.0882v0l-0.11688,0.65588v0l-0.38361,-0.5307v0l-0.51263,0.38037v0z" fill="#ffffff" fill-opacity="1"></path></g><g><title>Path 20</title><path d="M67.24988,44.84219v0l-0.60461,-0.11621v0l0.48798,-0.39972v0l-0.34473,-0.53699v0l0.61176,0.08099v0l0.11316,-0.63757v0l0.37427,0.51593v0l0.50897,-0.36969v0l-0.07922,0.65076v0l0.59711,0.11469v0l-0.47888,0.39587v0l0.341,0.53741v0l-0.60596,-0.08319v0l-0.11664,0.64124v0l-0.37476,-0.5174v0l-0.50708,0.3692v0z" fill="#ffffff" fill-opacity="1"></path></g><g><title>Path 21</title><path d="M27.62685,62.81433v0l-1.40314,-0.27051v0l1.13803,-0.92432v0l-0.80743,-1.24231v0l1.41013,0.19427v0l0.27408,-1.48273v0l0.84961,1.19672v0l1.18613,-0.85712v0l-0.19424,1.50031v0l1.40109,0.26648v0l-1.13461,0.91931v0l0.80396,1.24585v0l-1.41522,-0.1944v0l-0.2634,1.48096v0l-0.86615,-1.19635v0l-1.17328,0.85852v0z" fill="#ffffff" fill-opacity="1"></path></g><g><title>Path 22</title><path d="M13.93742,92.68987h1.01788v0.66125h-5.0687v-0.66125h0.42084c0.03004,-0.03149 0.06354,-0.09167 0.02107,-0.1853l-1.22984,-3.31531c-0.02148,0.00843 -0.03348,0.01746 -0.05165,0.02637c-2.35547,0.99487 -4.7289,1.00195 -4.7289,1.00195l-0.00146,-0.0033l-0.41031,1.07593c-0.17337,0.44519 -0.25453,0.84668 -0.25453,1.03601c0,0.19226 0.06363,0.30359 0.22794,0.36365h1.02153v0.66125h-4.9024v-0.66125h0.9774c0.64313,-0.11462 0.9487,-0.5935 1.31142,-1.49841l4.45851,-11.14398c0.20897,-0.50745 0.33759,-0.79547 0.62218,-0.79547c0.25998,0 0.40268,0.2685 0.56554,0.65021c0.18537,0.42773 0.84313,2.07489 1.60114,3.97998c0.96488,2.414 2.16153,5.4201 2.79915,6.93817c0.71043,1.67371 1.22628,1.79382 1.46873,1.85205c0.02318,0.0055 0.04583,0.00892 0.06731,0.01038zM8.69882,88.11969l-1.7863,-4.80865l-2.19867,5.83014h0.02867c1.62555,0.02502 3.90729,-1.02295 3.90729,-1.02295c0,0 0.02304,0 0.04901,0.00146z" fill="#003b7c" fill-opacity="1"></path></g><g><title>Path 23</title><path d="M27.01765,91.01422v0l-0.01242,0.02295c-0.01553,0.03162 -0.03177,0.06372 -0.0477,0.09534c-0.32858,0.61865 -1.20532,0.9137 -2.68115,0.9137h-4.15076v0l0.95935,-1.46143c2.1987,-3.3418 4.47299,-6.80029 6.57089,-10.21466l0.02795,-0.04608c0.07285,-0.11627 0.13095,-0.22601 0.13095,-0.35181c0,-0.12366 -0.10779,-0.25787 -0.41888,-0.25787l-6.20126,0.00208c-0.53708,0 -1.30948,-0.00714 -2.47067,-0.05664c-0.25455,-0.01062 -0.39081,-0.04962 -0.4949,-0.08118c-0.06522,-0.01605 -0.11819,-0.03363 -0.17841,-0.03918l-0.10974,-0.00891v0l-0.65933,3.41077v0l0.61887,0.1203v0l0.2048,-1.0675c0.12381,-0.23492 0.34122,-0.54944 0.70895,-0.74591c0.56702,-0.32166 1.69312,-0.35657 2.49515,-0.35657h3.26059c-1.36243,2.14508 -2.82928,4.41779 -4.25339,6.61639c-1.0517,1.62195 -2.10303,3.24817 -3.13354,4.85828c-0.22449,0.33557 -0.28647,0.43823 -0.28647,0.59912c0,0.11108 0.05499,0.29297 0.42075,0.29297c1.87708,0 3.57678,0.02515 5.21692,0.04968c1.49335,0.02087 2.89993,0.04248 4.31717,0.04248c0.11517,0 0.21387,-0.02307 0.31094,-0.07117l0.04977,-0.02783v0l0.08807,-0.44202v0l0.00363,0.0022v0l0.55145,-2.83484v0l-0.61664,-0.11829v0z" fill="#003b7c" fill-opacity="1"></path></g><g><title>Path 24</title><path d="M78.73621,80.21582v0l0.45032,0.00134c0.20197,0 0.48798,0.01819 0.61328,0.04834c0.48987,0.104 0.63464,0.29846 0.67017,0.90466c0.03717,0.5636 0.03717,1.05139 0.03717,3.755v2.21838c0,1.88 -0.07611,3.39648 -0.99701,4.31702c-0.83594,0.83618 -1.9281,0.92627 -2.36298,0.92627c-0.64117,0 -1.39062,-0.08496 -2.1449,-0.70178c-0.69647,-0.57056 -1.34375,-1.47937 -1.34375,-4.27319v-2.48669c0,-2.70361 0,-3.19141 0.039,-3.755c0.03015,-0.61157 0.16638,-0.83069 0.55518,-0.90125c0.2085,-0.03552 0.31122,-0.05176 0.50348,-0.0531h0.40125v0v-0.62585v0h-5.78595v0v0.27759c-0.00549,0.0177 -0.01416,0.04065 -0.01416,0.07068c0,0.03015 0.00867,0.05469 0.01416,0.07422v0.20337v0l0.40826,0.00134c0.27734,0 0.5481,0.01965 0.66974,0.04834c0.48938,0.104 0.63416,0.29846 0.66827,0.90466c0.03717,0.5636 0.03717,1.05139 0.03717,3.755v2.59094c0,2.27441 0.51251,3.79419 1.61853,4.79126c1.38562,1.25476 3.22711,1.25476 4.01843,1.25476c1.04462,0 2.42114,-0.14868 3.76428,-1.3064c1.52356,-1.30188 1.73224,-3.37903 1.73224,-5.43042v-1.90015c0,-2.70361 0,-3.19141 0.03162,-3.755c0.03363,-0.61157 0.1712,-0.83069 0.55511,-0.90125c0.20825,-0.03552 0.3125,-0.05176 0.50531,-0.0531h0.47357v0v-0.62585v0h-5.1178v0z" fill="#003b7c" fill-opacity="1"></path></g><g><title>Path 25</title><path d="M94.88245,79.59003v0v0.62579v0l0.49438,0.00134c0.2406,0 0.65076,0 0.89429,0.09576c0.34106,0.14337 0.51233,0.40283 0.52686,1.49139l0.17639,7.76526c-0.2135,-0.21912 -0.64673,-0.66968 -1.16418,-1.21045c-0.86597,-0.90466 -1.93347,-2.02881 -2.62305,-2.71985c-2.46313,-2.44043 -5.11206,-5.27521 -5.50293,-5.69403c-0.06006,-0.06561 -0.11316,-0.1217 -0.16418,-0.17834c-0.21594,-0.23883 -0.36768,-0.40814 -0.57605,-0.40814c-0.35022,0 -0.35022,0.52502 -0.35022,0.71924l-0.1554,10.50806c-0.01746,1.48779 -0.08875,1.97009 -0.46619,2.08679c-0.08179,0.02454 -0.1825,0.04407 -0.28821,0.0564h-0.93188v0v0.62744v0h5.23315v0v-0.62744v0h-0.93335c-0.1554,-0.01941 -0.28809,-0.04724 -0.40076,-0.08984c-0.2334,-0.07959 -0.50391,-0.36584 -0.54248,-1.85913l-0.1875,-7.20172c0.06531,0.07074 0.14294,0.15741 0.23499,0.26019c0.74744,0.81787 2.29541,2.52307 3.82996,4.04517c0.74866,0.7384 1.56055,1.55701 2.3429,2.34143c1.14368,1.15417 2.2301,2.24268 2.89832,2.87683c0.21411,0.21399 0.44348,0.42444 0.68396,0.42444c0.35168,0 0.35168,-0.46838 0.35168,-0.66431l0.19446,-11.19922c0.01782,-1.06219 0.18921,-1.28998 0.5675,-1.39764c0.19922,-0.04828 0.32642,-0.04828 0.50696,-0.04962h0.46814v0v-0.62579v0z" fill="#003b7c" fill-opacity="1"></path></g><g><title>Path 26</title><path d="M39.87753,90.38098c-0.2475,0 -0.28662,0.21899 -0.30756,0.36389c-0.12164,0.70337 -0.3161,1.03601 -0.73334,1.22681c-0.43634,0.20154 -1.17328,0.20154 -1.61865,0.20154c-1.7937,0 -1.9812,-0.26172 -2.01331,-1.37866c-0.01398,-0.36218 -0.00513,-1.27954 -0.00342,-2.01477c0,-0.29333 0.00342,-0.55688 0.00342,-0.72998v-1.40332c0,-0.03149 0.00409,-0.0509 0,-0.05786c0.42627,0 2.16711,0.01746 2.50085,0.05103c0.67169,0.07422 0.82703,0.36072 0.88562,0.60461c0.03516,0.15173 0.04749,0.31104 0.06,0.45374c0.0036,0.05884 0.00873,0.11682 0.01202,0.16797v0.31799v0h0.62585v0v-3.255v0h-0.62585v0v0.37805c-0.14819,0.06921 -0.35657,0.09924 -0.62164,0.12207c-0.26202,0.02136 -1.26727,0.03528 -2.83276,0.04785c0,-0.00549 -0.00409,-0.02307 -0.00409,-0.09021v-4.49048c0,-0.04407 0.00409,-0.06018 0.00409,-0.06018v0v0.00208c0.3371,0 2.21411,0.03491 2.51276,0.0686c0.84808,0.10266 0.98987,0.29858 1.08698,0.56763c0.03717,0.08118 0.06506,0.19226 0.0813,0.31055v0.66113v0h0.62347v0v-0.64172c0.00897,-0.15173 0.02319,-0.32861 0.03357,-0.48389c0.01062,-0.1593 0.01807,-0.29346 0.02313,-0.36414c0.04059,-0.54443 0.08826,-0.81104 0.11664,-0.97205c0.01416,-0.08838 0.02673,-0.14148 0.02673,-0.18726c0,-0.25098 -0.1593,-0.27759 -0.22803,-0.27759c-0.07275,0 -0.14673,0.02319 -0.21033,0.04419c-0.0321,0.01245 -0.06213,0.02307 -0.09924,0.03015c-0.06873,0.01404 -0.16077,0.03149 -0.26648,0.04602h-8.19159v0v0.68933v0h1.52899c0.3075,0.11829 0.41858,0.32849 0.45233,0.84106c0.03546,0.56372 0.03546,1.05151 0.03546,3.75513v3.12451c0,1.62244 0,3.02905 -0.0921,3.76453c-0.07068,0.54065 -0.16083,0.82153 -0.42023,0.8761c-0.01447,0.00354 -0.03711,0.00708 -0.05518,0.01074l-1.44928,0.00745v0v0.62366v0h5.742c0.63452,0.01953 1.42102,0.03503 2.37146,0.03503c0.67163,0 0.92822,0 1.07642,-0.55103c0.09021,-0.36963 0.23157,-1.5835 0.23157,-1.99536c0,-0.17676 0,-0.43994 -0.2616,-0.43994z" fill="#003b7c" fill-opacity="1"></path></g><g><title>Path 27</title><path d="M64.34198,85.00757v0l-0.49298,-0.36926c-1.55701,-1.17865 -1.83447,-1.75488 -1.83447,-2.46362c0,-1.03741 0.78107,-1.70886 1.99176,-1.70886c1.06549,0 1.56183,0.4679 1.83948,0.82507c0.20355,0.25092 0.31116,0.51947 0.36572,0.71234v0.82849v0h0.62573v0v-2.9671v0l-0.02118,-0.11804v0h-0.09357c-0.02649,-0.01068 -0.06213,-0.02173 -0.09369,-0.03009c-0.53003,-0.14117 -1.27789,-0.30621 -2.39307,-0.30621c-2.4812,0 -4.22198,1.42822 -4.22198,3.47314c0,1.54944 0.80444,2.83435 2.67755,4.2998l0.81464,0.63977c1.41412,1.10596 1.69678,1.8678 1.69678,2.74622c0,0.92407 -0.79352,1.90503 -2.26239,1.90503c-0.71533,0 -1.98077,-0.2229 -2.42816,-1.70532c-0.04193,-0.16821 -0.0882,-0.36279 -0.11816,-0.52856v-0.78979v0h-0.61877v0l-0.00482,0.35156c-0.0072,0.02454 -0.01251,0.04968 -0.01819,0.08801v2.99744v0l0.03363,0.0354c0.05658,0.06165 0.13831,0.11121 0.2655,0.16797c0.7489,0.33057 1.53735,0.47192 2.63995,0.47192c1.15771,0 2.09955,-0.24402 2.88599,-0.74756c1.50043,-0.97583 1.71936,-2.41614 1.71936,-3.18652c0,-1.7478 -0.7951,-2.99927 -2.95465,-4.62122z" fill="#003b7c" fill-opacity="1"></path></g><g><title>Path 28</title><path d="M54.92965,91.4417c0.59765,0.61316 1.18609,0.98791 1.7478,1.11157l1.13116,-0.00354v0.90479l-2.39111,-0.005c-1.01086,0 -1.49677,-0.08874 -2.01825,-0.36584c-0.77746,-0.41919 -1.45636,-1.23389 -2.51489,-2.68445c-0.29999,-0.41724 -0.62713,-0.87818 -0.91522,-1.28638c-0.38025,-0.54602 -0.70532,-1.00598 -0.82562,-1.14551c-0.02099,-0.02466 -0.03149,-0.03906 -0.12866,-0.03906l-1.42975,-0.03137l-0.00348,0.13428c0,1.62903 0,3.03784 0.08313,3.76758c0.05664,0.54395 0.16784,0.71399 0.48242,0.75452c0.0351,0.00562 0.07215,0.01233 0.11823,0.01392l0.03912,0.00366l1.50531,-0.00525v0.90503l-6.41309,-0.00171v-0.89624l1.20734,-0.01941c0.13757,-0.02808 0.21539,-0.22107 0.29297,-0.75989c0.07953,-0.72437 0.07953,-2.12622 0.07953,-3.74463v-3.12305c0,-2.70208 0,-3.18603 -0.03351,-3.74664c-0.02454,-0.49787 -0.1236,-0.62714 -0.33899,-0.71381h-1.46545v-0.96136h5.74896v0.02112c1.07605,0.00745 2.28833,0.12018 3.28882,0.80597c0.45441,0.30926 1.31647,1.25989 1.31647,2.64221c0,1.48278 -0.67127,2.68591 -2.24219,4.01147l0.45728,0.57812c1.29553,1.63807 2.32391,2.93152 3.22168,3.87891zM47.58163,86.32539c0,0.07812 0.00549,0.0957 0.00549,0.10278c0.29156,0.08118 0.76849,0.14136 1.24945,0.14136c0.69422,0 0.85358,-0.06872 1.10956,-0.25256c0.35498,-0.25794 0.94525,-0.92078 0.94525,-2.45667c0,-2.36322 -1.54791,-2.99579 -2.46313,-2.99579c-0.15393,0 -0.62909,0 -0.84662,0.05511z" fill="#003b7c" fill-opacity="1"></path></g></g></g></svg>