<svg width="160" height="80" viewBox="0 0 160 80" fill="none" xmlns="http://www.w3.org/2000/svg">
<path fill-rule="evenodd" clip-rule="evenodd" d="M100.879 56.0456C101.075 56.3577 100.963 63.1303 100.963 64.1305H104.671L104.668 55.9326C104.651 52.952 99.9766 51.4372 95.7444 53.6706C95.0933 53.372 94.9955 53.0785 93.7405 52.8002C92.919 52.618 92.03 52.5893 91.1597 52.6113C88.3123 52.6787 88.3798 53.0245 86.3893 53.4446V64.1828L90.1746 64.1525L90.1762 55.0588C93.9699 54.3301 93.6561 55.8584 93.6561 57.719C93.6561 59.8713 93.6561 62.0237 93.6561 64.1811H97.4414V55.3692C98.973 54.4769 100.791 54.7923 100.879 56.0456Z" fill="#0094D9"/>
<path fill-rule="evenodd" clip-rule="evenodd" d="M37.6029 50.467C35.1671 49.2795 31.2824 49.2592 28.8415 50.4754C23.5264 53.1221 23.8654 61.5949 29.0035 63.7541C30.3985 64.3411 31.8373 64.503 33.5157 64.4541C35.4269 64.4001 36.2804 64.1606 37.8559 63.6056L37.812 55.6692L31.8559 55.6826L31.8508 57.8772L34.0487 57.9092L34.0454 61.708C32.593 62.2393 30.8927 61.853 29.9498 60.4749C28.5699 58.4592 27.5039 50.1465 36.665 52.7375L37.6029 50.467Z" fill="#0094D9"/>
<path fill-rule="evenodd" clip-rule="evenodd" d="M80.6915 61.9729C79.6777 62.3693 78.2304 62.1247 77.6501 61.5023C77.0446 60.8529 76.8135 59.6114 76.8236 58.4407C76.8455 55.9696 77.9909 54.2119 80.6915 54.8394V61.9729ZM80.6915 52.8017C79.261 52.7579 78.5678 52.5082 77.0867 52.8894C73.789 53.7379 72.3113 57.2212 73.229 60.6184C74.683 65.9994 82.9434 64.5082 84.4564 63.5636V47.8981L80.6915 47.8931V52.8017Z" fill="#0094D9"/>
<path fill-rule="evenodd" clip-rule="evenodd" d="M64.1585 55.0569C64.9918 54.8106 66.2637 54.7364 67.016 55.1699C67.8324 55.6422 67.6604 56.6577 67.6604 57.717C67.6604 59.8711 67.6604 62.0251 67.6604 64.1809L71.4456 64.1556C71.4456 62.1972 71.4456 60.2388 71.4456 58.2804C71.4456 56.0386 71.6834 54.8258 70.2075 53.6669C68.0214 51.9515 63.0267 52.6042 60.3716 53.4611V64.1809H64.1569V55.0569H64.1585Z" fill="#0094D9"/>
<path fill-rule="evenodd" clip-rule="evenodd" d="M54.8372 62.2159C53.1402 62.5785 50.9963 62.5465 51.1582 60.4768C51.2898 58.7933 53.2212 58.5184 54.854 58.3952L54.8372 62.2159ZM48.3176 53.5372C48.4458 53.9218 48.9856 55.2898 49.1931 55.5293C50.3182 55.1785 51.1414 54.885 52.4891 54.8597C53.9617 54.8327 54.8456 55.0283 54.8557 56.5111C54.8034 56.7202 54.9333 56.6629 54.1692 56.7286C53.9195 56.7506 53.6868 56.7776 53.4439 56.8096C52.0539 56.9867 50.664 57.2735 49.4562 57.8959C47.7289 58.7866 47.0053 60.6606 47.9415 62.4284C48.6752 63.815 50.6168 64.3682 52.6494 64.4509C54.9603 64.5454 56.4919 64.2738 58.4402 63.6041C58.4402 61.7486 58.4402 59.8931 58.4402 58.0393C58.4402 55.8498 58.4605 54.9491 57.1953 53.7379C56.249 52.8321 54.4526 52.5639 52.8214 52.6111C51.7284 52.6432 48.9586 52.9485 48.3176 53.5372Z" fill="#0094D9"/>
<path fill-rule="evenodd" clip-rule="evenodd" d="M113.43 62.209C111.706 62.6223 109.567 62.5329 109.754 60.4564C109.904 58.7966 111.795 58.53 113.448 58.3951L113.43 62.209ZM107.725 55.5461C108.948 55.2087 109.705 54.8663 111.183 54.8595C112.686 54.8528 113.496 55.0957 113.44 56.6678C111.562 56.8011 109.41 57.1232 107.954 57.9447C106.107 58.9889 105.667 60.9523 106.534 62.4502C108.18 65.2959 115.051 64.6329 117.029 63.5753C117.029 61.7299 117.029 59.8862 117.029 58.0409C117.029 56.2275 116.952 54.6639 115.859 53.7715C114.788 52.8961 113.285 52.5688 111.503 52.611C109.209 52.665 108.801 52.9737 106.875 53.4713L107.725 55.5461Z" fill="#0094D9"/>
<path fill-rule="evenodd" clip-rule="evenodd" d="M127.145 55.1617H128.697C128.849 57.0239 128.38 61.2393 129.05 62.6073C130.079 64.7091 133.368 64.7529 134.637 64.0613V61.8954C134.159 61.9207 132.499 62.6241 132.499 60.6927C132.499 59.2944 132.444 56.3914 132.514 55.165L134.638 55.1313V52.8929L132.503 52.8794L132.469 49.7031L128.716 50.56L128.709 52.8878H127.147L127.145 55.1617Z" fill="#0094D9"/>
<path fill-rule="evenodd" clip-rule="evenodd" d="M125.495 55.1684C125.701 54.8142 125.777 54.3571 125.903 53.9489C125.996 53.6469 126.222 53.1459 126.183 52.8255L126.138 52.6939C124.985 52.5471 123.498 52.5859 122.332 52.6973C120.205 52.8997 120.429 53.0987 118.964 53.4479V64.1811L122.75 64.1642V55.0504C124.147 54.8041 124.238 55.0048 125.495 55.1684Z" fill="#0094D9"/>
<path fill-rule="evenodd" clip-rule="evenodd" d="M46.4404 55.192C46.6158 54.8648 47.2163 53.0515 47.1522 52.6989C45.3861 52.5201 43.2185 52.5876 41.4778 52.9789C40.9245 53.1037 40.4049 53.3298 39.9141 53.4428L39.9495 64.1811L43.6976 64.1726L43.6993 55.0487C44.8851 54.8564 45.3288 54.8918 46.4404 55.192Z" fill="#0094D9"/>
<path fill-rule="evenodd" clip-rule="evenodd" d="M53.9755 23.1102L53.9906 23.1642C54.2099 23.7057 54.6569 24.4209 54.9504 24.9893C55.2642 25.5983 55.5577 26.2038 55.8225 26.8533C56.3168 28.0661 56.8498 29.8136 56.8751 31.3014C57.3238 31.2626 58.5855 30.5221 58.9347 30.3011L58.7289 32.5952C60.3061 32.2359 61.1478 31.9373 62.9645 31.907C64.4152 31.8834 66.0497 32.02 67.4498 32.2528C68.5462 27.6275 68.7199 24.1527 68.8498 19.379C68.9055 17.3413 69.2125 16.1707 69.2698 15L67.4346 16.0475C65.6499 16.9567 63.2546 18.011 61.4228 18.8324C59.5858 19.6573 56.4956 21.2463 54.8593 22.4861C54.5793 22.6969 54.2673 22.9618 53.9755 23.1102Z" fill="#DB8327"/>
<path fill-rule="evenodd" clip-rule="evenodd" d="M47.3605 47.2941L47.4212 47.2604C47.5123 46.1218 47.5865 45.5145 47.5308 44.2865C47.4785 43.1715 47.4887 42.1358 47.514 41.0242C47.3655 41.3093 47.3099 41.8069 47.3841 42.1443C47.1496 37.8749 47.2559 34.3107 48.5581 30.6351C49.1148 29.063 49.9093 27.6039 50.7948 26.3927C51.4898 25.4431 53.0467 23.7073 53.9914 23.1625L53.9762 23.1085C53.5342 22.6615 51.6501 19.1411 51.2115 18.1779L50.5098 16.2246C49.9599 17.4627 49.0372 18.7211 48.2697 19.632C45.6686 22.7189 42.5699 26.0621 41.8699 30.3332C41.3031 33.7911 42.3152 37.1327 43.5871 39.668C44.2146 40.9196 44.9331 42.0953 45.6737 43.2272C46.2607 44.1279 47.5022 45.9058 47.3605 47.2941Z" fill="#81B341"/>
<path fill-rule="evenodd" clip-rule="evenodd" d="M52.557 45.2817C51.9548 45.4166 50.7976 45.9109 50.1296 46.1538C49.3351 46.4422 48.3602 46.6986 47.8339 47.1979C49.3975 46.8538 51.0186 47.2789 52.5586 47.5488C54.1847 47.8322 55.7822 48.0852 57.4825 48.1004C62.2629 48.1459 66.1443 46.4135 68.7892 42.9758C71.2604 39.7641 72.1139 37.0483 73.9171 34.4017C74.3388 33.7843 74.7184 33.3863 75.1384 32.8229C70.8775 33.1315 70.643 32.4501 67.4482 32.2544C66.8106 34.1504 66.2826 35.5083 65.2233 37.0028C64.0661 38.6373 64.0037 38.5226 62.8061 39.8147C61.8142 40.8842 58.9736 42.6469 57.5854 43.3182C56.7386 43.7298 53.4071 45.2294 52.557 45.2817Z" fill="#D51573"/>
<path fill-rule="evenodd" clip-rule="evenodd" d="M58.7272 32.5936C58.5264 37.3386 58.4488 41.893 54.1407 44.4367C53.7325 44.678 52.8419 45.071 52.5568 45.2818C53.4069 45.2296 56.7384 43.73 57.5869 43.3184C58.9751 42.6453 61.8157 40.8843 62.8076 39.8149C64.0052 38.5228 64.0676 38.6375 65.2248 37.0029C66.2824 35.5084 66.8104 34.1505 67.4497 32.2546C66.0496 32.0201 64.4151 31.8835 62.9645 31.9088C61.1444 31.9374 60.3027 32.2343 58.7272 32.5936Z" fill="#D52726"/>
<path fill-rule="evenodd" clip-rule="evenodd" d="M47.514 41.0243C47.5865 38.3355 48.9427 36.2894 50.724 34.7072C51.8693 33.69 55.329 31.8868 56.8775 31.396L56.8741 31.2998C56.8488 29.8137 56.3158 28.0662 55.8216 26.8517C55.5567 26.2022 55.2632 25.5967 54.9495 24.9877C54.656 24.4193 54.209 23.7041 53.9897 23.1626C53.0451 23.7074 51.4881 25.4415 50.7932 26.3929C49.9076 27.604 49.1148 29.0631 48.5564 30.6352C47.2542 34.3108 47.1479 37.875 47.3824 42.1444C47.3099 41.807 47.3655 41.3094 47.514 41.0243Z" fill="#C2B130"/>
<path fill-rule="evenodd" clip-rule="evenodd" d="M47.5132 41.0241C47.4896 42.1357 47.4795 43.1714 47.5301 44.2864C47.5875 45.5144 47.5116 46.1217 47.4205 47.2603L50.1919 43.7264C53.2535 40.0087 57.0674 36.5709 56.8768 31.3975C55.3266 31.8883 51.8686 33.6915 50.7233 34.7087C48.942 36.2892 47.5858 38.3353 47.5132 41.0241Z" fill="#009985"/>
<path fill-rule="evenodd" clip-rule="evenodd" d="M56.8744 31.2996L56.8778 31.3957C57.0684 36.5692 53.2562 40.0086 50.1929 43.7247L47.4215 47.2585L47.3607 47.2923C47.3607 47.5976 47.3439 47.3614 47.4349 47.4306L47.833 47.1944C48.361 46.6968 49.3343 46.4404 50.1288 46.1503C50.7968 45.9074 51.9539 45.4132 52.5561 45.2782C52.8395 45.0674 53.7318 44.6743 54.14 44.4331C58.4482 41.8894 58.5275 37.3367 58.7265 32.59L58.9323 30.2959C58.5865 30.5202 57.3231 31.2608 56.8744 31.2996Z" fill="#007381"/>
</svg>
