<svg width="160" height="80" viewBox="0 0 160 80" fill="none" xmlns="http://www.w3.org/2000/svg">
<path fill-rule="evenodd" clip-rule="evenodd" d="M137.203 50.6083C137.366 50.3758 137.589 50.1905 137.862 50.0994C138.107 50.0177 138.34 50.0365 138.591 50.0365L141.528 50.0334L141.519 50.3193C141.513 50.5234 141.406 50.7716 141.302 50.9413C141.136 51.2114 140.891 51.425 140.58 51.5099C140.35 51.5727 140.099 51.5695 139.864 51.5695L137.2 51.5727L137.196 53.445L142.553 53.4387L142.543 53.7246C142.537 53.9256 142.427 54.1738 142.32 54.3403C142.154 54.6042 141.915 54.8147 141.616 54.912C141.371 54.9937 141.139 54.9749 140.888 54.9749C139.242 54.9749 137.599 54.978 135.952 54.978L135.66 55V54.7047C135.66 52.5622 135.663 50.4229 135.663 48.2805C135.663 48.1548 135.667 48.0292 135.663 47.9035V47.9003C135.657 47.7841 135.692 47.6459 135.736 47.5391C135.805 47.3694 135.896 47.2092 136.022 47.0773C136.175 46.8982 136.367 46.76 136.59 46.6877C136.835 46.6061 137.065 46.6249 137.316 46.6249L137.577 46.6218H142.59L142.581 46.9077C142.575 47.1087 142.465 47.3569 142.358 47.5234C142.191 47.7873 141.953 47.9977 141.654 48.0951C141.409 48.1768 141.177 48.1579 140.925 48.1579C139.684 48.1579 138.444 48.1611 137.203 48.1611V50.0334V50.6083ZM111.804 50.0365L113.73 50.0334L113.72 50.3161C113.708 50.7559 113.394 51.3214 112.979 51.5004C112.772 51.5884 112.59 51.5727 112.373 51.5727L112.169 51.5758H109.074L109.084 51.2931C109.096 50.8533 109.41 50.2878 109.825 50.1088C110.032 50.0208 110.215 50.0365 110.431 50.0365H111.804ZM116.318 36.9776C116.331 36.6383 116.526 36.2079 116.705 35.9252C116.994 35.4697 117.402 35.1084 117.917 34.9356C118.097 34.8759 118.279 34.8477 118.467 34.832H118.477L121.285 34.8225L121.276 35.1084C121.263 35.4477 121.068 35.8781 120.889 36.1608C120.6 36.6163 120.192 36.9776 119.677 37.1503C119.498 37.21 119.315 37.2414 119.127 37.254H119.117L116.309 37.2666L116.318 36.9776ZM107.259 50.1182V48.2836C107.259 48.0323 107.24 47.7998 107.321 47.5548C107.485 47.0647 107.981 46.694 108.487 46.6281L108.798 46.5872V50.0334V50.5109V51.7769H108.795V53.3256C108.795 53.5769 108.814 53.8094 108.732 54.0544C108.631 54.3529 108.421 54.5916 108.16 54.7581C107.994 54.8649 107.745 54.9717 107.544 54.9812L107.259 54.9906V50.1182ZM130.326 49.6093L133.113 46.6124L133.251 46.6281C133.735 46.6815 134.237 47.0899 134.391 47.5516C134.473 47.7967 134.454 48.0291 134.454 48.2805C134.454 49.5433 134.454 50.8093 134.454 52.0722C134.454 52.5779 134.457 53.0837 134.457 53.5895C134.457 53.7466 134.441 53.9036 134.391 54.0544C134.291 54.3529 134.083 54.5916 133.819 54.7581C133.653 54.8649 133.405 54.9717 133.204 54.9812L132.918 54.9906V49.2386L130.329 52.0125L127.712 49.2135L127.709 53.5926C127.706 53.7497 127.694 53.9036 127.643 54.0544C127.543 54.3529 127.335 54.5916 127.072 54.7581C126.905 54.8649 126.657 54.9717 126.456 54.9812L126.17 54.9906V52.0722C126.17 50.8093 126.173 49.5433 126.173 48.2805C126.173 48.0291 126.154 47.7967 126.236 47.5516C126.39 47.0899 126.893 46.6846 127.376 46.6281L127.515 46.6124L130.326 49.6093ZM120.874 46.6249C123.179 46.6249 125.049 48.4941 125.049 50.803C125.049 53.1088 123.179 54.9812 120.874 54.9812C118.568 54.9812 116.695 53.112 116.695 50.803C116.699 48.4972 118.568 46.6249 120.874 46.6249ZM115.568 53.3256C115.568 53.5769 115.587 53.8094 115.505 54.0544C115.404 54.3529 115.194 54.5916 114.933 54.7581C114.767 54.8649 114.518 54.9717 114.317 54.9812L114.031 54.9906V52.0722C114.031 50.8093 114.035 49.5433 114.035 48.2805C114.035 48.0291 114.019 47.7967 114.097 47.5516C114.198 47.2532 114.408 47.0145 114.669 46.848C114.836 46.7412 115.084 46.6343 115.285 46.6249L115.571 46.6124V50.5046C115.571 51.447 115.568 52.3863 115.568 53.3256ZM128.912 36.8833C129.481 36.8111 130.317 36.6791 130.826 37.009C131.196 37.2477 131.375 37.6875 131.507 38.0896C131.592 38.3472 131.721 38.586 131.872 38.8059C132.239 39.3431 132.805 39.7075 133.392 39.9619C134.149 40.2886 134.963 40.4174 135.783 40.4174C136.486 40.4174 137.203 40.3263 137.862 40.075C138.353 39.8865 138.83 39.6038 139.144 39.1734C139.408 38.8122 139.556 38.4101 139.556 37.964C139.556 37.5367 139.436 37.1566 139.169 36.8205C138.849 36.4152 138.293 36.1419 137.818 35.9629C137.492 35.8404 137.13 35.743 136.791 35.6519C136.182 35.4885 135.566 35.3377 134.95 35.1932C134.303 35.0393 133.656 34.8728 133.021 34.6717C132.594 34.5367 132.142 34.3765 131.743 34.1691C131.011 33.789 130.354 33.2769 129.905 32.5796C129.487 31.9293 129.289 31.2067 129.289 30.4371C129.289 29.5544 129.55 28.747 130.037 28.015C130.568 27.214 131.325 26.6705 132.208 26.3092C133.191 25.9071 134.24 25.7406 135.299 25.7406C136.424 25.7406 137.555 25.904 138.598 26.3375C139.515 26.7176 140.294 27.2957 140.847 28.1281C141.384 28.9323 141.654 29.8308 141.695 30.7952L141.704 31.0402L141.463 31.0779C140.753 31.1848 139.703 31.3073 139.188 30.679C139.066 30.5282 138.981 30.3554 138.912 30.1764C138.723 29.6894 138.469 29.2214 138.054 28.8884C137.335 28.3072 136.279 28.1721 135.384 28.1721C134.539 28.1721 133.392 28.2726 132.701 28.8193C132.217 29.1994 131.909 29.68 131.909 30.3052C131.909 30.7952 132.082 31.1973 132.45 31.5209C133.006 32.0141 134.859 32.4413 135.579 32.5984C136.326 32.7649 137.074 32.9408 137.812 33.1482C138.287 33.2832 138.792 33.434 139.242 33.6382C140.102 34.0278 140.913 34.5744 141.453 35.3629C141.953 36.0885 142.176 36.9085 142.176 37.7881C142.176 38.7179 141.899 39.5692 141.387 40.3452C140.831 41.1871 140.052 41.7902 139.135 42.2018C138.107 42.6604 137.005 42.8521 135.886 42.8521C134.611 42.8521 133.263 42.6981 132.082 42.1955C131.064 41.7651 130.235 41.1086 129.619 40.1881C129.01 39.2771 128.708 38.2624 128.677 37.1692L128.671 36.921L128.912 36.8833ZM119.231 29.8182L124.502 41.0866C124.844 41.8531 125.416 42.4562 126.245 42.6856C126.698 42.8081 127.32 42.8206 127.756 42.6259L128.011 42.5128L123.082 31.9167C122.755 31.213 122.457 30.4905 122.146 29.7805C121.807 29.0046 121.433 28.1596 120.977 27.4464C120.607 26.8653 120.05 26.1742 119.344 26.014C119.083 25.9543 118.662 25.8663 118.401 25.8663H118.228L117.412 27.5564L111.701 39.3399C111.352 40.0939 111.28 40.9012 111.638 41.6614C111.832 42.0761 112.222 42.5505 112.643 42.7547L112.656 42.761L112.935 42.8646L119.231 29.8182ZM106.366 38.8938L111.635 27.6318C111.98 26.8621 112.549 26.2558 113.378 26.0297C113.83 25.9071 114.452 25.8946 114.889 26.0893L115.144 26.2024L110.215 36.7985C109.888 37.5022 109.589 38.2247 109.278 38.9347C108.939 39.7106 108.565 40.5557 108.11 41.2688C107.739 41.8499 107.183 42.541 106.476 42.7013C106.187 42.7672 105.892 42.8018 105.6 42.8458L105.581 42.8489H105.364L104.547 41.1588L98.8364 29.3721C98.4877 28.6213 98.4154 27.814 98.7767 27.0569C98.9714 26.6454 99.361 26.1679 99.7819 25.9668L99.7914 25.9605L100.071 25.8537L106.366 38.8938ZM89.5597 25.9291C94.2342 25.9291 98.0227 29.7177 98.0227 34.3922C98.0227 39.0666 94.2342 42.8552 89.5597 42.8552C84.8852 42.8552 81.0967 39.0666 81.0967 34.3922C81.0998 29.7177 84.8884 25.9291 89.5597 25.9291ZM62.091 33.255V29.102C62.091 28.6182 62.0533 28.1407 62.2103 27.6695C62.3894 27.1323 62.7632 26.6988 63.2313 26.3878C63.5423 26.1804 63.9758 25.9794 64.3497 25.9386L64.4847 25.9228L76.2965 38.5043V33.2581H76.2997V29.1051C76.2997 28.6213 76.262 28.1407 76.4191 27.6726C76.6076 27.1103 77.0034 26.6674 77.4966 26.3532C77.8013 26.1585 78.2725 25.948 78.6401 25.9354L78.9259 25.926V36.1357H78.9197V39.6886C78.9197 40.1724 78.9573 40.6499 78.8003 41.1211C78.6118 41.6834 78.216 42.1264 77.7228 42.4405C77.418 42.6322 76.9468 42.8458 76.5793 42.8583L76.4536 42.8646L64.7141 30.2989L64.7109 33.7796V36.1357H64.7046V39.6886C64.7046 40.1724 64.7423 40.6499 64.5853 41.1211C64.3968 41.6834 64.001 42.1264 63.5078 42.4405C63.203 42.6322 62.7318 42.8458 62.3643 42.8583L62.0784 42.8678V33.2581H62.091V33.255ZM20.7999 33.478C20.7245 33.434 20.6491 33.39 20.5769 33.3429C19.7601 32.8372 18.6983 31.9952 18.5695 30.9711C18.4501 30.0318 19.0062 29.1805 19.7161 28.6245C20.1748 28.2632 20.6334 27.9616 21.1518 27.6883C22.1225 27.1731 23.3099 26.7648 24.3654 26.4663C24.5194 26.4223 24.6764 26.3815 24.8304 26.3407C26.709 25.8569 28.5341 25.5427 30.4598 25.326C32.3196 25.1155 34.2076 25.0181 36.0799 25.0024C37.9365 24.9867 39.8119 25.0464 41.6591 25.2223C45.011 25.5365 50.4834 26.3595 53.2353 28.4454C53.6405 28.7187 53.9923 29.2528 54.1997 29.6863C54.4667 30.2423 54.7494 31.1502 54.3253 31.6968C54.206 31.8507 54.0457 31.9513 53.8635 32.0078L53.8573 32.011L53.851 32.0141C53.5274 32.0989 52.9871 32.0581 52.6949 31.8979L52.6855 31.8916C52.6101 31.8476 52.5504 31.7785 52.5222 31.6937C52.4373 31.4392 52.629 31.3073 52.6855 31.1094C52.764 30.8329 52.7892 30.5502 52.7358 30.2643C52.4845 28.8884 50.5399 28.0527 49.3901 27.6475C48.1744 27.2203 46.8833 26.9344 45.6173 26.7145C43.9492 26.4223 42.2528 26.2401 40.5658 26.1145C38.6527 25.97 36.7458 25.9228 34.8296 25.992C33.5918 26.0359 32.3573 26.127 31.1227 26.2496C29.2818 26.4349 27.4189 26.7553 25.6346 27.2548C24.4126 27.5941 22.9549 28.0873 21.89 28.7847C21.3842 29.1145 20.1842 29.9219 20.1057 30.5785C19.9863 31.5994 21.3151 32.4382 22.1225 32.8591C23.4136 32.3282 24.8021 31.9513 26.1623 31.6623C27.8933 31.2916 29.6619 31.0465 31.4243 30.88C33.2746 30.7073 35.1469 30.6444 37.0034 30.6601C38.8757 30.6758 40.7637 30.7732 42.6235 30.9837C44.5492 31.2036 46.3744 31.5146 48.2529 31.9984C48.41 32.0392 48.5671 32.0801 48.721 32.124C49.7765 32.4225 50.9609 32.8309 51.9316 33.3461C52.2017 33.4906 52.4907 33.6414 52.7389 33.8173C52.9525 33.9681 53.1599 34.122 53.3672 34.2822C53.8007 34.6246 54.4981 35.4477 54.4855 36.0194C54.4855 36.0603 54.5013 36.1262 54.5107 36.1671C54.5327 36.2833 54.539 36.3933 54.5295 36.5095C54.5264 36.5503 54.5232 36.5912 54.517 36.6289C54.4824 36.8896 54.341 37.2352 54.1997 37.4582C54.1494 37.5367 54.0834 37.609 54.0395 37.6875L54.0238 37.7127L53.5525 38.2279L53.5431 38.2373C53.4457 38.3284 53.3546 38.4164 53.2447 38.498C53.0059 38.6771 52.7609 38.8436 52.5064 39.0038C52.4719 39.0258 52.4405 39.0446 52.4059 39.0666C52.6384 39.164 52.8708 39.2677 53.1002 39.3776L53.1065 39.3808L54.0803 39.9085L54.0897 39.9148C54.1149 39.9305 54.14 39.9462 54.1683 39.9619C54.3348 40.0562 54.5232 40.1567 54.5421 40.3735C54.5547 40.518 54.4761 40.6373 54.363 40.719C54.1808 40.851 53.851 40.8981 53.6311 40.9044C53.2918 40.9138 52.94 40.8415 52.6572 40.653C52.1546 40.3169 51.5138 40.0216 50.942 39.786C50.6153 39.9211 50.2823 40.0436 49.9493 40.163C48.9409 40.5243 47.8791 40.7944 46.833 41.0175C45.611 41.2782 44.3733 41.4792 43.1355 41.6332C42.3376 41.7306 41.5365 41.8091 40.7355 41.8656C40.503 41.8814 40.2737 41.9002 40.0444 41.9128C39.7239 41.9316 38.8161 41.9379 38.8695 41.407C38.8852 41.2436 39.0077 41.1337 39.1522 41.0803C39.5983 40.9201 40.1103 40.9389 40.5815 40.9012C40.7857 40.8855 40.9899 40.873 41.1878 40.8541L42.9753 40.6562C43.3649 40.6059 43.7513 40.5494 44.1377 40.4866C45.8277 40.2132 47.6089 39.8268 49.2299 39.1986L48.7776 39.0572C44.989 38.0174 40.9334 37.7095 37.016 37.7095C36.0013 37.7095 34.9929 37.7566 33.9782 37.8132C33.3091 37.8509 32.6369 37.9137 31.974 37.9797C31.2483 38.0551 30.507 38.1336 29.7876 38.2561C29.2284 38.3504 28.6661 38.4415 28.1069 38.5514C27.6137 38.6488 27.1268 38.7619 26.6367 38.875C25.7225 39.0918 24.7267 39.4028 23.8597 39.7546C23.3382 39.9651 22.823 40.1881 22.3424 40.4866C22.0848 40.6468 21.8366 40.8227 21.5884 40.9986C20.6146 41.696 20.1622 42.5568 20.8156 43.6437C21.0104 43.9673 21.2366 44.0992 21.5036 44.3505C21.5947 44.4353 21.6575 44.4793 21.7298 44.5296C25.7508 42.6227 31.0693 42.029 35.4641 41.9756C37.7574 41.9505 40.0663 42.0667 42.3439 42.3306C44.3733 42.5662 46.4278 42.9243 48.3974 43.4709C50.298 43.9987 54.4855 45.3652 54.7463 47.7527C54.8405 48.6197 54.3882 49.38 53.8133 49.9894C52.2363 51.6575 48.6645 52.7476 46.4749 53.1874C44.8351 53.5172 43.1764 53.7528 41.5114 53.9099C38.86 54.1612 36.1741 54.2146 33.5165 54.0733C31.129 53.9476 28.7101 53.6617 26.376 53.1403C24.0167 52.6125 19.1381 51.2271 18.4721 48.4627C18.1203 47.2061 19.3266 45.9998 20.3413 45.2992C19.3234 44.6081 18.2239 43.5275 18.5978 42.2206C18.8145 41.4635 19.3768 40.8447 19.9863 40.3672L19.9926 40.364L20.4826 40.0153L20.4858 40.0122C21.4659 39.3682 22.6251 38.9033 23.7372 38.5451C24.3654 38.3441 24.9812 38.165 25.622 38.0017C26.533 37.7692 27.4629 37.5996 28.3896 37.4331C29.8944 37.1629 31.4494 36.9996 32.9761 36.8833C34.0411 36.8016 35.1092 36.7482 36.1773 36.7294C38.8475 36.6854 41.5365 36.7954 44.1911 37.1158L45.3157 37.2634C47.1597 37.5305 49.0163 37.9137 50.7912 38.4792C50.8666 38.4383 50.9389 38.3975 51.0143 38.3535L51.6583 37.9137C51.9881 37.6216 52.4845 37.1723 52.5818 36.7263C52.6447 36.4687 52.6572 36.2519 52.5975 35.9912C52.4185 35.3409 51.7462 34.7911 51.2059 34.4393C50.1409 33.7387 48.6833 33.2455 47.4613 32.9063C45.6801 32.4099 43.8141 32.0895 41.9732 31.9041C40.7418 31.7785 39.504 31.6905 38.2663 31.6466C36.35 31.5774 34.4432 31.6277 32.53 31.7691C29.7247 31.9795 26.4639 32.4822 23.7906 33.5754C25.443 34.1723 27.2493 34.5587 28.9582 34.8351C29.9384 34.9922 30.9248 35.0958 31.908 35.2027C32.1091 35.2246 32.3133 35.2341 32.5143 35.2498C32.9824 35.2906 33.4976 35.2686 33.9437 35.4288C34.0913 35.4822 34.2107 35.5922 34.2264 35.7555C34.2798 36.2833 33.3719 36.277 33.0515 36.2613C32.8191 36.2487 32.5897 36.2299 32.3604 36.2142C31.5593 36.1608 30.7583 36.0823 29.9603 35.9817C28.7226 35.8278 27.4818 35.6268 26.2629 35.366C25.2168 35.143 24.1518 34.8728 23.1466 34.5115C22.8984 34.4236 22.6502 34.3293 22.402 34.2351C21.5916 34.6875 19.9643 35.7713 20.4544 36.8362C20.4575 36.8456 20.4638 36.8582 20.4701 36.8676C20.5549 37.031 20.6837 37.1786 20.602 37.3765C20.5769 37.4362 20.5392 37.4833 20.4889 37.521C20.1811 37.7786 19.5182 37.8446 19.1664 37.6404C18.9151 37.4865 18.7297 37.2666 18.6198 36.9933C18.3747 36.3744 18.5726 35.4257 18.9999 34.9293C19.2512 34.6152 19.5276 34.3576 19.8449 34.1126C20.1371 33.8707 20.4638 33.6634 20.7999 33.478ZM120.874 48.1705C119.419 48.1705 118.241 49.3485 118.241 50.803C118.241 52.2575 119.419 53.4356 120.874 53.4356C122.328 53.4356 123.506 52.2575 123.506 50.803C123.506 49.3485 122.328 48.1705 120.874 48.1705ZM89.5597 28.5679C86.3429 28.5679 83.7386 31.1753 83.7386 34.389C83.7386 37.6027 86.346 40.2101 89.5597 40.2101C92.7765 40.2101 95.3808 37.6027 95.3808 34.389C95.3839 31.1753 92.7765 28.5679 89.5597 28.5679ZM23.0083 45.2929C23.5298 45.538 24.0764 45.7453 24.6073 45.9432C25.8231 46.3893 27.1582 46.694 28.4305 46.9328C30.0106 47.2281 31.6222 47.4323 33.2243 47.5579C33.8369 47.6051 34.4526 47.6428 35.0683 47.6647C36.2055 47.7087 37.3584 47.7307 38.4956 47.7056C38.6401 47.7024 38.7846 47.693 38.9323 47.6899C39.8402 47.671 40.7575 47.6176 41.6591 47.5422L43.1701 47.3946C43.4654 47.3694 43.7544 47.3286 44.0466 47.2909C44.2665 47.2626 44.4958 47.2375 44.7188 47.2689C44.9796 47.3035 45.4288 47.3694 45.4665 47.6993C45.4822 47.8344 45.4162 47.9506 45.3157 48.0354C45.0927 48.2208 44.7063 48.2302 44.4267 48.2648L43.123 48.4124C42.9879 48.425 42.8559 48.447 42.7209 48.4564C40.836 48.6103 38.9826 48.714 37.0914 48.6983C36.4223 48.692 35.7532 48.6826 35.084 48.6543C34.0285 48.6103 32.9761 48.5569 31.9269 48.4501C31.0473 48.3621 30.1708 48.2428 29.2944 48.1265C28.7697 48.0574 28.2483 47.9726 27.7268 47.8752C26.2817 47.605 24.7173 47.2375 23.3351 46.7317C22.801 46.537 22.289 46.3516 21.7738 46.1066C21.7486 46.094 21.7235 46.0846 21.7015 46.072C20.9758 46.5935 20.1308 47.4134 20.3758 48.3778C21.0167 50.2501 24.2524 51.3622 25.9487 51.8366C27.5917 52.2952 29.2975 52.5999 30.9907 52.8104C32.8725 53.0429 34.7762 53.1591 36.6736 53.1717C39.1773 53.1905 41.7313 53.0303 44.2005 52.6157C46.1922 52.2795 48.3849 51.736 50.1786 50.7842C50.9734 50.3632 51.9975 49.8135 52.475 49.0156C52.6698 48.692 52.7892 48.3339 52.764 47.9537C52.6981 46.9014 51.5546 46.0877 50.7253 45.6228C49.0257 44.671 46.8236 44.0929 44.923 43.7128C42.3062 43.1882 39.5669 42.9777 36.9029 42.9683C34.2264 42.9557 31.4871 43.1442 28.8483 43.5966C26.9477 43.917 24.7644 44.4259 23.0083 45.2929Z" fill="#00539A"/>
</svg>
