<svg width="160" height="80" viewBox="0 0 160 80" fill="none" xmlns="http://www.w3.org/2000/svg">
<path fill-rule="evenodd" clip-rule="evenodd" d="M30.4819 51.1243L35.6393 51.1221H35.6524C37.0742 51.1461 39.0761 51.2006 39.9331 49.8355C40.1533 49.4844 40.2624 49.0853 40.2624 48.671V33.4758C40.2624 33.0615 40.1533 32.6624 39.9331 32.3113C39.0761 30.9462 37.0742 30.9985 35.6524 31.0247H35.6393L30.4819 31.0225V29.5876L35.6284 29.5898C37.639 29.5549 39.9418 29.6247 41.1477 31.5502C41.5119 32.1303 41.6951 32.7932 41.6951 33.478V48.6731C41.6951 49.3557 41.5097 50.0208 41.1477 50.6009C39.9396 52.5265 37.6368 52.5962 35.6284 52.5613L30.4819 52.5635V51.1243ZM24.3672 51.1264L30.4798 51.1243V52.5592L24.3542 52.5613C22.6249 52.533 20.8127 52.1928 19.8118 50.5965C19.4476 50.0165 19.2644 49.3535 19.2644 48.6688V33.4736C19.2644 32.7911 19.4498 32.1259 19.8118 31.5459C20.8127 29.9496 22.6227 29.6094 24.3542 29.5811L30.4798 29.5832V31.0181L24.3672 31.016C23.17 31.0356 21.7264 31.197 21.0286 32.3091C20.8083 32.6602 20.6993 33.0593 20.6993 33.4736V48.6688C20.6993 49.0831 20.8083 49.4822 21.0286 49.8333C21.7264 50.9454 23.17 51.1046 24.3672 51.1264Z" fill="#FFF200"/>
<path fill-rule="evenodd" clip-rule="evenodd" d="M22.1475 37.2812L25.2855 40.0595C25.4621 40.2165 25.7151 40.38 25.7151 40.9209V49.4103C25.7151 49.6459 25.521 49.8356 25.2855 49.8399C23.9553 49.8639 22.1475 49.8901 22.1475 48.8346V37.2812Z" fill="#ED1C24"/>
<path fill-rule="evenodd" clip-rule="evenodd" d="M38.8162 35.9268L35.6869 39.9196C35.5364 40.1115 35.2573 40.3776 35.2573 41.0405L35.2485 49.4101C35.2485 49.6456 35.4426 49.8353 35.6781 49.8397C37.0084 49.8637 38.8162 49.8898 38.8162 48.8344V35.9268Z" fill="#ED1C24"/>
<path fill-rule="evenodd" clip-rule="evenodd" d="M31.1882 36.5812L21.0196 28.796C20.8844 28.6935 20.4984 28.4558 20.1648 28.5191C18.8782 28.7611 17.6156 30.2266 18.1498 31.4543C18.2087 31.5873 18.3439 31.7007 18.4508 31.7945L31.1882 43.0709L48.4725 21L31.1882 36.5812Z" fill="#ED1C24"/>
<path fill-rule="evenodd" clip-rule="evenodd" d="M52.3852 47.7858C52.3852 47.306 51.9818 46.9004 51.4999 46.9004H47.2889V44.458H50.7301C51.2098 44.458 51.6155 44.0546 51.6155 43.5726V42.4583C51.6155 41.9785 51.212 41.5729 50.7301 41.5729H47.2889V39.209H51.308C51.7877 39.209 52.1933 38.8056 52.1933 38.3237V37.2093C52.1933 36.7296 51.7899 36.324 51.308 36.324H45.0973C44.6176 36.324 44.212 36.7274 44.212 37.2093V48.9001C44.212 49.3799 44.6154 49.7855 45.0973 49.7855H51.5021C51.9818 49.7855 52.3874 49.382 52.3874 48.9001V47.7858H52.3852ZM57.5775 43.0558C57.5775 40.3823 59.1738 38.9801 61.5006 38.9801C62.1548 38.9801 62.809 39.1349 63.4414 39.4424C63.5962 39.5187 63.7489 39.5579 63.9037 39.5579C64.2504 39.5579 64.5187 39.3857 64.7106 39.0586L65.2296 38.1361C65.3059 38.0009 65.3452 37.8679 65.3452 37.7131C65.3452 37.3663 65.1729 37.0981 64.8065 36.8866C63.8448 36.3676 62.6149 36.0994 61.1342 36.0994C59.0778 36.0994 57.4227 36.7536 56.1731 38.0794C54.9236 39.4053 54.3086 41.0779 54.3086 43.0602C54.3086 45.1951 54.9432 46.8873 56.2124 48.1368C57.4815 49.3864 59.2501 50.021 61.518 50.021C63.0358 50.021 64.824 49.4627 66.0364 48.5599C66.3832 48.3091 66.5554 47.9842 66.5554 47.5415V42.9991C66.5554 42.5193 66.152 42.1137 65.6701 42.1137H61.6903C61.2105 42.1137 60.8049 42.5172 60.8049 42.9991V44.1134C60.8049 44.5932 61.2084 44.9988 61.6903 44.9988H63.6704V46.4599C63.3433 46.7674 62.3249 47.1337 61.5551 47.1337C59.1541 47.1315 57.5775 45.5374 57.5775 43.0558ZM77.8798 49.1509C78.0521 49.5739 78.3596 49.7855 78.8023 49.7855H80.1674C80.6297 49.7855 80.9939 49.4017 80.9939 48.959C80.9939 48.8434 80.9742 48.7278 80.9372 48.6319L76.0917 36.9607C75.8997 36.5377 75.5923 36.3261 75.1496 36.3261H73.7452C73.3025 36.3261 72.9951 36.5377 72.8031 36.9607L67.9576 48.6319C67.9184 48.7278 67.9009 48.8434 67.9009 48.959C67.9009 49.4017 68.2673 49.7855 68.7274 49.7855H69.9006C70.3433 49.7855 70.6508 49.5739 70.8231 49.1509L71.6888 46.9593H77.0141L77.8798 49.1509ZM75.8605 44.0742H72.8424L74.3623 40.2667L75.8605 44.0742ZM82.3982 47.2471C82.3023 47.3823 82.2434 47.5742 82.2434 47.8054C82.2434 48.0932 82.3394 48.3244 82.5313 48.4792C83.8571 49.4976 85.2048 50.0166 86.607 50.0166C87.9329 50.0166 89.0298 49.6503 89.9129 48.9023C90.7787 48.1521 91.2214 47.2101 91.2214 46.0565C91.2214 41.6732 85.6082 42.2119 85.6082 39.981C85.6082 39.366 86.1076 38.9822 86.9537 38.9822C87.4727 38.9822 87.9917 39.0978 88.4715 39.3486C88.6438 39.4446 88.8182 39.5034 88.9905 39.5034C89.3176 39.5034 89.5684 39.3486 89.7603 39.0411L90.2597 38.195C90.336 38.0598 90.3752 37.9072 90.3752 37.7327C90.3752 37.386 90.2597 37.1374 90.0089 36.9825C89.0864 36.3872 87.9699 36.0972 86.6833 36.0972C85.3771 36.0972 84.3194 36.481 83.53 37.2311C82.7428 37.9813 82.3372 38.9037 82.3372 39.981C82.3372 41.5969 83.2225 42.8072 84.3173 43.4418C85.9332 44.3839 87.9503 44.9988 87.9503 46.0957C87.9503 46.7303 87.4706 47.1337 86.6811 47.1337C85.9702 47.1337 85.1634 46.8262 84.2584 46.2309C84.0861 46.0957 83.8746 46.039 83.663 46.039C83.3556 46.039 83.1244 46.1742 82.9521 46.4424L82.3982 47.2471ZM98.5093 49.7855C98.989 49.7855 99.3946 49.382 99.3946 48.9001V39.209H102.548C103.028 39.209 103.433 38.8056 103.433 38.3237V37.2093C103.433 36.7296 103.03 36.324 102.548 36.324H93.1644C92.6846 36.324 92.279 36.7274 92.279 37.2093V38.3237C92.279 38.8034 92.6824 39.209 93.1644 39.209H96.3177V48.9001C96.3177 49.3799 96.7211 49.7855 97.203 49.7855H98.5093ZM103.817 43.0558C103.817 45.1515 104.491 46.8437 105.836 48.1129C107.162 49.382 108.874 50.0166 110.97 50.0166C113.026 50.0166 114.738 49.3624 116.103 48.0562C117.449 46.7477 118.122 45.0751 118.122 43.058C118.122 40.9623 117.449 39.2701 116.123 38.0009C114.777 36.7318 113.065 36.0972 110.97 36.0972C108.855 36.0972 107.143 36.7514 105.817 38.0772C104.489 39.4031 103.817 41.0757 103.817 43.0558ZM107.086 43.0558C107.086 41.8455 107.452 40.8446 108.183 40.0944C108.913 39.3442 109.836 38.9801 110.97 38.9801C112.067 38.9801 112.989 39.3639 113.739 40.114C114.489 40.8642 114.854 41.8433 114.854 43.0558C114.854 44.2487 114.507 45.2278 113.835 45.978C113.161 46.7477 112.202 47.1315 110.97 47.1315C109.893 47.1315 108.97 46.7477 108.22 45.9583C107.47 45.1711 107.086 44.2094 107.086 43.0558ZM127.715 49.2272C127.966 49.5936 128.311 49.7855 128.773 49.7855H130.195C130.675 49.7855 131.041 49.4017 131.041 48.959C131.041 48.7867 130.984 48.6319 130.869 48.4792L127.907 44.4798C129.427 43.7296 130.175 42.4234 130.175 40.596C130.175 37.9224 128.675 36.2891 125.195 36.2891C124.484 36.2891 123.254 36.3087 121.503 36.3283C121.023 36.3283 120.617 36.7318 120.617 37.2137V48.9045C120.617 49.3842 121.021 49.7898 121.503 49.7898H122.811C123.291 49.7898 123.696 49.3864 123.696 48.9045V45.0773H124.83L127.715 49.2272ZM123.696 39.2112C124.542 39.1916 124.985 39.172 125.042 39.172C126.291 39.172 126.906 39.6517 126.906 40.633C126.906 41.6711 126.215 42.1901 124.811 42.1901H123.696V39.2112ZM141.654 47.7858C141.654 47.306 141.251 46.9004 140.769 46.9004H136.558V44.458H139.999C140.479 44.458 140.885 44.0546 140.885 43.5726V42.4583C140.885 41.9785 140.481 41.5729 139.999 41.5729H136.558V39.209H140.577C141.057 39.209 141.463 38.8056 141.463 38.3237V37.2093C141.463 36.7296 141.059 36.324 140.577 36.324H134.367C133.887 36.324 133.481 36.7274 133.481 37.2093V48.9001C133.481 49.3799 133.885 49.7855 134.367 49.7855H140.769C141.249 49.7855 141.654 49.382 141.654 48.9001V47.7858Z" fill="#ED1C24"/>
<path fill-rule="evenodd" clip-rule="evenodd" d="M44.2638 57.0952C44.2333 57.1388 44.2137 57.2021 44.2137 57.2762C44.2137 57.37 44.2442 57.4463 44.3075 57.4965C44.7392 57.8279 45.1776 57.998 45.6355 57.998C46.0673 57.998 46.4249 57.8781 46.7128 57.6339C46.9941 57.3896 47.138 57.0821 47.138 56.7071C47.138 55.2787 45.3084 55.4532 45.3084 54.727C45.3084 54.5264 45.4719 54.4021 45.7467 54.4021C45.9168 54.4021 46.0847 54.4391 46.2417 54.522C46.2984 54.5525 46.3551 54.5722 46.4118 54.5722C46.5187 54.5722 46.5994 54.522 46.6626 54.4217L46.8262 54.1469C46.8523 54.1033 46.8632 54.0531 46.8632 53.9964C46.8632 53.883 46.8262 53.8024 46.7433 53.7522C46.4424 53.5581 46.0782 53.4644 45.6595 53.4644C45.2343 53.4644 44.8875 53.5887 44.6324 53.8351C44.3751 54.0793 44.2442 54.3803 44.2442 54.7313C44.2442 55.2569 44.5321 55.6538 44.8897 55.8588C45.4153 56.1662 46.0738 56.3669 46.0738 56.7245C46.0738 56.9317 45.9168 57.0625 45.6595 57.0625C45.4283 57.0625 45.1645 56.9622 44.8701 56.7681C44.8134 56.7245 44.7436 56.7049 44.676 56.7049C44.5757 56.7049 44.5015 56.7485 44.4448 56.8357L44.2638 57.0952ZM55.8019 55.9111C55.8019 56.6634 55.5882 57.0582 55.0125 57.0582C54.4041 57.0582 54.1032 56.6569 54.1032 55.8544V53.8242C54.1032 53.6672 53.9723 53.5363 53.8153 53.5363H53.3901C53.2331 53.5363 53.1022 53.6672 53.1022 53.8242V56.0681C53.1022 56.694 53.2767 57.1716 53.6234 57.503C53.968 57.8345 54.4325 57.998 55.0147 57.998C55.5293 57.998 55.9546 57.841 56.2991 57.527C56.6371 57.213 56.8072 56.7441 56.8072 56.1095V53.822C56.8072 53.665 56.6764 53.5341 56.5194 53.5341H56.0941C55.9371 53.5341 55.8063 53.665 55.8063 53.822V55.9111H55.8019ZM64.3874 53.5232C64.13 53.5232 63.7789 53.5298 63.3341 53.5363C63.1771 53.5363 63.0462 53.6737 63.0462 53.8307V57.636C63.0462 57.7931 63.1771 57.9239 63.3341 57.9239H63.7593C63.9163 57.9239 64.0472 57.7931 64.0472 57.636V56.4323C64.154 56.4454 64.3176 56.4519 64.5356 56.4519C65.0241 56.4519 65.4188 56.308 65.7132 56.0201C66.0076 55.7388 66.1581 55.3877 66.1581 54.9799C66.1581 54.5591 66.0207 54.208 65.7372 53.9332C65.4581 53.6606 65.0067 53.5232 64.3874 53.5232ZM64.0472 54.4762C64.3219 54.4697 64.468 54.4631 64.4855 54.4631C64.8933 54.4631 65.0939 54.6332 65.0939 54.9712C65.0939 55.3528 64.8235 55.5099 64.5051 55.5099C64.3612 55.5099 64.2042 55.4968 64.0472 55.4793V54.4762ZM74.8133 57.2719C74.8133 57.1149 74.6824 56.984 74.5254 56.984H73.1538V56.1881H74.2747C74.4317 56.1881 74.5625 56.0572 74.5625 55.9002V55.536C74.5625 55.379 74.4317 55.2482 74.2747 55.2482H73.1538V54.4762H74.4644C74.6214 54.4762 74.7522 54.3454 74.7522 54.1883V53.8242C74.7522 53.6672 74.6214 53.5363 74.4644 53.5363H72.4407C72.2837 53.5363 72.1528 53.6672 72.1528 53.8242V57.6339C72.1528 57.7909 72.2837 57.9217 72.4407 57.9217H74.5276C74.6846 57.9217 74.8155 57.7909 74.8155 57.6339V57.2719H74.8133ZM83.2417 57.7407C83.3224 57.8607 83.4358 57.9217 83.5863 57.9217H84.0507C84.2078 57.9217 84.3255 57.7974 84.3255 57.6513C84.3255 57.5946 84.3059 57.5445 84.2688 57.4943L83.3028 56.1902C83.7978 55.946 84.042 55.5186 84.042 54.9232C84.042 54.051 83.5535 53.5189 82.4196 53.5189C82.1884 53.5189 81.7872 53.5254 81.2158 53.532C81.0588 53.532 80.928 53.6628 80.928 53.8198V57.6295C80.928 57.7865 81.0588 57.9174 81.2158 57.9174H81.6411C81.7981 57.9174 81.9289 57.7865 81.9289 57.6295V56.3821H82.2996L83.2417 57.7407ZM81.9333 54.4762C82.208 54.4697 82.3542 54.4631 82.3716 54.4631C82.7794 54.4631 82.98 54.6201 82.98 54.9385C82.98 55.2765 82.7554 55.4466 82.2975 55.4466H81.9333V54.4762ZM92.2109 56.4061C92.4312 56.7005 92.7561 56.7005 92.9764 56.4061L93.8857 55.1282V57.636C93.8857 57.7931 94.0165 57.9239 94.1736 57.9239H94.5988C94.7558 57.9239 94.8867 57.7931 94.8867 57.636V53.8263C94.8867 53.6693 94.7558 53.5385 94.5988 53.5385H94.1278C93.9969 53.5385 93.8966 53.6017 93.8137 53.7195L92.6601 55.3877L91.439 53.7151C91.3517 53.5952 91.2449 53.5407 91.114 53.5407H90.5885C90.4315 53.5407 90.3006 53.6715 90.3006 53.8285V57.6382C90.3006 57.7952 90.4315 57.9261 90.5885 57.9261H91.0137C91.1707 57.9261 91.3016 57.7952 91.3016 57.6382V55.1457L92.2109 56.4061ZM104.004 57.7167C104.061 57.8541 104.161 57.9239 104.305 57.9239H104.75C104.9 57.9239 105.02 57.7996 105.02 57.6535C105.02 57.6164 105.014 57.5793 105.001 57.5466L103.422 53.7413C103.359 53.6039 103.258 53.5341 103.114 53.5341H102.656C102.513 53.5341 102.412 53.6039 102.349 53.7413L100.77 57.5466C100.757 57.5772 100.751 57.6164 100.751 57.6535C100.751 57.7974 100.87 57.9239 101.021 57.9239H101.403C101.547 57.9239 101.647 57.8541 101.704 57.7167L101.985 57.0015H103.721L104.004 57.7167ZM103.346 56.0616H102.362L102.857 54.8207L103.346 56.0616ZM113.198 57.7407C113.279 57.8607 113.392 57.9217 113.543 57.9217H114.007C114.164 57.9217 114.282 57.7974 114.282 57.6513C114.282 57.5946 114.262 57.5445 114.225 57.4943L113.259 56.1902C113.754 55.946 113.998 55.5186 113.998 54.9232C113.998 54.051 113.51 53.5189 112.376 53.5189C112.145 53.5189 111.743 53.5254 111.172 53.532C111.015 53.532 110.884 53.6628 110.884 53.8198V57.6295C110.884 57.7865 111.015 57.9174 111.172 57.9174H111.597C111.754 57.9174 111.885 57.7865 111.885 57.6295V56.3821H112.256L113.198 57.7407ZM111.887 54.4762C112.162 54.4697 112.308 54.4631 112.326 54.4631C112.734 54.4631 112.934 54.6201 112.934 54.9385C112.934 55.2765 112.71 55.4466 112.252 55.4466H111.887V54.4762ZM122.623 57.7407C122.71 57.8607 122.83 57.9217 122.974 57.9217H123.456C123.626 57.9217 123.744 57.7909 123.744 57.6404C123.744 57.5772 123.724 57.5205 123.681 57.4659L122.246 55.56L123.537 53.9812C123.58 53.9245 123.6 53.8678 123.6 53.8067C123.6 53.6628 123.48 53.5363 123.325 53.5363H122.911C122.767 53.5363 122.647 53.593 122.56 53.7108L121.256 55.4466V53.8242C121.256 53.6672 121.125 53.5363 120.968 53.5363H120.543C120.386 53.5363 120.255 53.6672 120.255 53.8242V57.6339C120.255 57.7909 120.386 57.9217 120.543 57.9217H120.968C121.125 57.9217 121.256 57.7909 121.256 57.6339V55.8348L122.623 57.7407ZM132.403 57.2719C132.403 57.1149 132.273 56.984 132.116 56.984H130.744V56.1881H131.865C132.022 56.1881 132.153 56.0572 132.153 55.9002V55.536C132.153 55.379 132.022 55.2482 131.865 55.2482H130.744V54.4762H132.055C132.212 54.4762 132.342 54.3454 132.342 54.1883V53.8242C132.342 53.6672 132.212 53.5363 132.055 53.5363H130.031C129.874 53.5363 129.743 53.6672 129.743 53.8242V57.6339C129.743 57.7909 129.874 57.9217 130.031 57.9217H132.118C132.275 57.9217 132.406 57.7909 132.406 57.6339V57.2719H132.403ZM140.049 57.9217C140.206 57.9217 140.337 57.7909 140.337 57.6339V54.474H141.364C141.521 54.474 141.652 54.3432 141.652 54.1862V53.822C141.652 53.665 141.521 53.5341 141.364 53.5341H138.304C138.147 53.5341 138.017 53.665 138.017 53.822V54.1862C138.017 54.3432 138.147 54.474 138.304 54.474H139.332V57.6339C139.332 57.7909 139.462 57.9217 139.619 57.9217H140.049Z" fill="#ED1C24"/>
<path fill-rule="evenodd" clip-rule="evenodd" d="M20.3629 53.4556H40.5977C41.2017 53.4556 41.6946 53.9506 41.6946 54.5525V56.9033C41.6946 57.5073 41.1995 58.0002 40.5977 58.0002H20.3629C19.7589 58.0002 19.2661 57.5051 19.2661 56.9033V54.5525C19.2661 53.9506 19.7589 53.4556 20.3629 53.4556Z" fill="#FFF200"/>
<path fill-rule="evenodd" clip-rule="evenodd" d="M22.7929 56.7025L22.1518 55.695L22.7929 54.6766H22.2805L21.8727 55.3985L21.4976 54.6766H20.9851L21.5761 55.6929L20.9786 56.7025H21.4954L21.8705 55.9872L22.2761 56.7025H22.7929ZM23.1767 54.0508C23.0393 54.0508 22.9347 54.1598 22.9347 54.2972C22.9347 54.4368 23.0415 54.5458 23.1767 54.5458C23.3141 54.5458 23.4231 54.4368 23.4231 54.2972C23.421 54.1598 23.3141 54.0508 23.1767 54.0508ZM23.3839 54.6766H22.963V56.7025H23.3839V54.6766ZM23.7393 54.6766V56.7025H24.483C24.882 56.7025 25.2549 56.5106 25.2549 56.057V55.3352C25.2549 54.8773 24.8842 54.6766 24.483 54.6766H23.7393ZM24.158 56.2795V55.0997H24.4808C24.664 55.0997 24.8297 55.1651 24.8297 55.3352V56.057C24.8297 56.2206 24.664 56.2795 24.4808 56.2795H24.158ZM25.9767 55.9L25.931 55.5075H25.9593L26.0574 55.7844L26.3366 56.4365H26.6506L26.9275 55.7866L27.0257 55.5031H27.0562L27.0039 55.8957V56.7025H27.4247V54.6766H26.9842L26.487 55.8411L25.9964 54.6766H25.5559V56.7025H25.9767V55.9ZM28.5827 55.0517C28.7789 55.0605 28.9447 55.1608 28.9621 55.3265V55.4857H27.7235V56.0592C27.7235 56.5106 28.1378 56.7331 28.5522 56.7331C28.9665 56.7331 29.3808 56.5041 29.3808 56.0592V55.3243C29.3808 54.8795 28.9687 54.6505 28.55 54.6505C28.2839 54.6505 27.983 54.7879 27.8478 55.0844L28.1858 55.2676C28.225 55.1913 28.2839 55.1368 28.3581 55.1019C28.4257 55.067 28.4976 55.0495 28.5718 55.0495H28.5827V55.0517ZM28.1444 55.8957H28.9643V56.0614C28.9643 56.2271 28.7615 56.3165 28.5565 56.3165C28.3515 56.3165 28.1444 56.2337 28.1444 56.0614V55.8957ZM31.1341 55.0997V54.6766H29.5509V55.0997H30.131V56.7025H30.554V55.0997H31.1341ZM31.5659 54.0508C31.4285 54.0508 31.3238 54.1598 31.3238 54.2972C31.3238 54.4368 31.4307 54.5458 31.5659 54.5458C31.7011 54.5458 31.8123 54.4368 31.8123 54.2972C31.8101 54.1598 31.7011 54.0508 31.5659 54.0508ZM31.773 54.6766H31.3522V56.7025H31.773V54.6766ZM33.317 56.3253C33.16 56.3231 32.9833 56.2489 32.8918 56.1028L32.5734 56.3449C32.7456 56.6044 33.0139 56.7309 33.2756 56.7309C33.6463 56.7309 34.0083 56.5215 34.0453 56.1443V56.0985C34.0453 55.9982 34.0279 55.9153 33.9974 55.8477C33.8861 55.6078 33.6397 55.5249 33.3715 55.4726C33.197 55.4355 33.0226 55.4115 33.0226 55.2458V55.2436C33.0313 55.1041 33.1709 55.043 33.3323 55.043C33.4675 55.043 33.5809 55.0997 33.6703 55.2349L34.017 55.0038C33.8447 54.7486 33.5961 54.6461 33.3344 54.6461C32.9724 54.6461 32.6192 54.8467 32.5974 55.2284V55.2458C32.5974 55.3505 32.6148 55.4399 32.6519 55.5119C32.7609 55.743 32.9921 55.8368 33.2385 55.8717C33.402 55.8935 33.5329 55.9196 33.5983 56.0091C33.6179 56.0352 33.6266 56.0658 33.6266 56.1028C33.6266 56.1792 33.5961 56.2337 33.5329 56.2707C33.4762 56.3056 33.4108 56.3231 33.3366 56.3231H33.317V56.3253ZM34.7235 55.0888H35.6721V54.6766H34.3005V56.7025H35.6721V56.2947H34.7235V55.8935H35.5958V55.4857H34.7235V55.0888ZM36.9544 57.2041C37.0155 57.0362 36.9522 56.8639 36.7625 56.8486L36.8236 56.72C37.0525 56.6829 37.2684 56.5477 37.4145 56.3078L37.0525 56.105C37.0133 56.1813 36.9544 56.2402 36.8803 56.2729C36.8083 56.3078 36.7363 56.3253 36.6665 56.3253H36.6556C36.479 56.3253 36.3176 56.225 36.3176 56.0592V55.3221C36.3176 55.1564 36.4834 55.0495 36.6644 55.0495H36.6753C36.7494 55.0495 36.8214 55.067 36.889 55.1019C36.9631 55.1368 37.0198 55.1913 37.0613 55.2676L37.3993 55.0844C37.2619 54.7879 36.9609 54.6505 36.6971 54.6505C36.2936 54.6505 35.9033 54.8795 35.9033 55.3221V56.0592C35.9033 56.4452 36.2042 56.6655 36.5401 56.72L36.4223 56.9489C36.6055 56.9489 36.6556 57.0296 36.6338 57.0885C36.6186 57.1278 36.588 57.1517 36.5357 57.1605H36.5161C36.4725 57.1605 36.4223 57.1408 36.3656 57.1038L36.2849 57.287C36.3569 57.3415 36.4288 57.3785 36.4986 57.396C36.5422 57.4047 36.5815 57.4069 36.6186 57.4069C36.6469 57.4069 36.6731 57.4047 36.6993 57.4004C36.8214 57.3785 36.9173 57.3044 36.9544 57.2041ZM37.8332 54.0508C37.6958 54.0508 37.5912 54.1598 37.5912 54.2972C37.5912 54.4368 37.698 54.5458 37.8332 54.5458C37.9706 54.5458 38.0796 54.4368 38.0796 54.2972C38.0796 54.1598 37.9706 54.0508 37.8332 54.0508ZM38.0426 54.6766H37.6217V56.7025H38.0426V54.6766ZM39.5625 55.7125C39.5625 55.7561 39.5996 56.0134 39.6236 56.1421L39.5952 56.1486L39.4513 55.7823L38.8102 54.6766H38.3958V56.7025H38.8189V55.7147L38.7644 55.3679L38.7927 55.3614L38.9148 55.6362L39.532 56.7003H39.9812V54.6745H39.5603V55.7125H39.5625Z" fill="#ED1C24"/>
</svg>
